<svg xmlns="http://www.w3.org/2000/svg" xmlns:xlink="http://www.w3.org/1999/xlink" width="1300" height="450.78"><rect width="1300" height="450.78" rx="5" ry="5" class="a"/><svg y="0%" x="0%"><circle cx="20" cy="20" r="6" fill="#ff5f58"/><circle cx="40" cy="20" r="6" fill="#ffbd2e"/><circle cx="60" cy="20" r="6" fill="#18c132"/></svg><svg height="390.78" viewBox="0 0 126 39.078" width="1260" x="15" xmlns="http://www.w3.org/2000/svg" xmlns:xlink="http://www.w3.org/1999/xlink" y="50"><style>@keyframes s{0%{transform:translateX(0)}10.4%{transform:translateX(-252px)}11.2%{transform:translateX(-504px)}20.8%{transform:translateX(-630px)}20.9%{transform:translateX(-756px)}24.4%{transform:translateX(-882px)}26.5%{transform:translateX(-1008px)}28%{transform:translateX(-1134px)}29.4%{transform:translateX(-1260px)}32%{transform:translateX(-1386px)}35.9%{transform:translateX(-1512px)}38.3%{transform:translateX(-1638px)}39.3%{transform:translateX(-1764px)}46.5%{transform:translateX(-1890px)}46.6%{transform:translateX(-2142px)}48%{transform:translateX(-2268px)}49.9%{transform:translateX(-2772px)}59.5%{transform:translateX(-3024px)}60.5%{transform:translateX(-3276px)}65%{transform:translateX(-3528px)}77.4%{transform:translateX(-3654px)}80.8%{transform:translateX(-3780px)}80.9%{transform:translateX(-4032px)}81.8%{transform:translateX(-4284px)}90.8%{transform:translateX(-4410px)}94.5%{transform:translateX(-4536px)}95.8%{transform:translateX(-4662px)}97.9%{transform:translateX(-4788px)}to{transform:translateX(-5166px)}}.a{fill:#282d35}.f{fill:#66c2cd;font-weight:700;white-space:pre}.g,.h,.i,.j{fill:#b9c0cb;white-space:pre}.h,.i,.j{fill:#d290e4;font-weight:700}.i,.j{fill:#e88388}.j{fill:#a8cc8c}.k{fill:#323232}.l{fill:#66c2cd;white-space:pre}.m{fill:#71bef2}.n,.o{fill:#a8cc8c;white-space:pre}.o{fill:#fff}</style><g font-family="Monaco,Consolas,Menlo,'Bitstream Vera Sans Mono','Powerline Symbols',monospace" font-size="1.67"><defs><symbol id="1"><text y="1.67" class="f">lk</text><text x="3.006" y="1.67" class="g">on</text><text x="6.012" y="1.67" class="h"></text><text x="8.016" y="1.67" class="h">main</text><text x="13.026" y="1.67" class="i">[$!]</text><text x="18.036" y="1.67" class="g">via</text><text x="22.044" y="1.67" class="i">🦀</text><text x="25.05" y="1.67" class="i">v1.56.1</text></symbol><symbol id="2"><text y="1.67" class="j">❯</text></symbol><symbol id="3"><text y="1.67" class="j">❯</text><text x="2.004" y="1.67" class="g">lk</text></symbol><symbol id="4"><text y="1.67" class="j">❯</text><text x="2.004" y="1.67" class="g">lk</text><text x="5.01" y="1.67" class="g">--fuzzy</text></symbol><symbol id="5"><text y="1.67" class="g">-</text></symbol><symbol id="6"><path class="k" d="M0 0h1v2.171H0z"/><text y="1.67" class="g"></text><text x="3.006" y="1.67" class="g">./lk/tests/executables_tests/script02.sh</text><text x="44.088" y="1.67" class="g">-</text><text x="46.092" y="1.67" class="g">script02_function</text></symbol><symbol id="7"><path class="k" d="M0 0h1v2.171H0z"/><text y="1.67" class="g"></text><text x="3.006" y="1.67" class="g">./lk/tests/executables_tests/script04.sh</text><text x="44.088" y="1.67" class="g">-</text><text x="46.092" y="1.67" class="g">script04_function02</text></symbol><symbol id="8"><text y="1.67" class="l">$</text></symbol><symbol id="9"><path class="k" d="M0 0h1v2.171H0z"/><text y="1.67" class="g"></text><text x="3.006" y="1.67" class="g">./lk/tests/executables_tests/script04.sh</text><text x="44.088" y="1.67" class="g">-</text><text x="46.092" y="1.67" class="g">script04_funct</text><path class="m" d="M60.12 0h1v2.171h-1z"/><text x="60.12" y="1.67" class="g">i</text><text x="61.122" y="1.67" class="g">on02</text></symbol><symbol id="10"><path class="k" d="M0 0h1v2.171H0z"/><text y="1.67" class="g"></text><text x="3.006" y="1.67" class="g">./lk/tests/executables_tests/script04.sh</text><text x="44.088" y="1.67" class="g">-</text><text x="46.092" y="1.67" class="g">script04_funct</text><path class="m" d="M60.12 0h1v2.171h-1z"/><text x="60.12" y="1.67" class="g">i</text><text x="61.122" y="1.67" class="g">on01</text></symbol><symbol id="11"><path class="k" d="M0 0h1v2.171H0z"/><text y="1.67" class="g"></text><text x="3.006" y="1.67" class="g">./lk/tests/depends_on_file/depends_on_file.sh</text><text x="49.098" y="1.67" class="g">-</text><text x="51.102" y="1.67" class="g">depends_on_f</text><path class="m" d="M63.126 0h1v2.171h-1z"/><text x="63.126" y="1.67" class="g">i</text><text x="64.128" y="1.67" class="g">le</text></symbol><symbol id="12"><path class="k" d="M0 0h1v2.171H0z"/><text y="1.67" class="g"></text><text x="3.006" y="1.67" class="g">./lk/tests/executables_tests/some_sub_dir/script04.sh</text><text x="57.114" y="1.67" class="g">-</text><text x="59.118" y="1.67" class="g">script04_funct</text><path class="m" d="M73.146 0h1v2.171h-1z"/><text x="73.146" y="1.67" class="g">i</text><text x="74.148" y="1.67" class="g">on02</text></symbol><symbol id="13"><path class="k" d="M0 0h1v2.171H0z"/><text y="1.67" class="g"></text><text x="3.006" y="1.67" class="g">./lk/tests/executables_tests/some_sub_dir/script04.sh</text><text x="57.114" y="1.67" class="g">-</text><text x="59.118" y="1.67" class="g">script04_funct</text><path class="m" d="M73.146 0h1v2.171h-1z"/><text x="73.146" y="1.67" class="g">i</text><text x="74.148" y="1.67" class="g">on01</text></symbol><symbol id="14"><path class="k" d="M0 0h1v2.171H0z"/><text y="1.67" class="g"></text><text x="3.006" y="1.67" class="g">./lk/tests/executables_tests/some_sub_dir/script01.sh</text><text x="57.114" y="1.67" class="g">-</text><text x="59.118" y="1.67" class="g">script01_funct</text><path class="m" d="M73.146 0h1v2.171h-1z"/><text x="73.146" y="1.67" class="g">i</text><text x="74.148" y="1.67" class="g">on02</text></symbol><symbol id="15"><path class="k" d="M0 0h1v2.171H0z"/><text y="1.67" class="g"></text><text x="3.006" y="1.67" class="g">./lk/tests/executables_tests/some_sub_dir/script01.sh</text><text x="57.114" y="1.67" class="g">-</text><text x="59.118" y="1.67" class="g">script01_funct</text><path class="m" d="M73.146 0h1v2.171h-1z"/><text x="73.146" y="1.67" class="g">i</text><text x="74.148" y="1.67" class="g">on01</text></symbol><symbol id="16"><text y="1.67" class="l">$</text><text x="2.004" y="1.67" class="g">i</text></symbol><symbol id="17"><path class="k" d="M0 0h1v2.171H0z"/><text y="1.67" class="g"></text><text x="3.006" y="1.67" class="g">./lk/tests/executables_tests/script04.sh</text><text x="44.088" y="1.67" class="g">-</text><text x="46.092" y="1.67" class="g">script04_funct</text><path class="m" d="M60.12 0h1v2.171h-1z"/><text x="60.12" y="1.67" class="g">i</text><text x="61.122" y="1.67" class="g">o</text><path class="m" d="M62.124 0h1v2.171h-1z"/><text x="62.124" y="1.67" class="g">n</text><text x="63.126" y="1.67" class="g">02</text></symbol><symbol id="18"><path class="k" d="M0 0h1v2.171H0z"/><text y="1.67" class="g"></text><text x="3.006" y="1.67" class="g">./lk/tests/executables_tests/script04.sh</text><text x="44.088" y="1.67" class="g">-</text><text x="46.092" y="1.67" class="g">script04_funct</text><path class="m" d="M60.12 0h1v2.171h-1z"/><text x="60.12" y="1.67" class="g">i</text><text x="61.122" y="1.67" class="g">o</text><path class="m" d="M62.124 0h1v2.171h-1z"/><text x="62.124" y="1.67" class="g">n</text><text x="63.126" y="1.67" class="g">01</text></symbol><symbol id="19"><path class="k" d="M0 0h1v2.171H0z"/><text y="1.67" class="g"></text><text x="3.006" y="1.67" class="g">./lk/tests/executables_tests/some_sub_dir/script04.sh</text><text x="57.114" y="1.67" class="g">-</text><text x="59.118" y="1.67" class="g">script04_funct</text><path class="m" d="M73.146 0h1v2.171h-1z"/><text x="73.146" y="1.67" class="g">i</text><text x="74.148" y="1.67" class="g">o</text><path class="m" d="M75.15 0h1v2.171h-1z"/><text x="75.15" y="1.67" class="g">n</text><text x="76.152" y="1.67" class="g">02</text></symbol><symbol id="20"><path class="k" d="M0 0h1v2.171H0z"/><text y="1.67" class="g"></text><text x="3.006" y="1.67" class="g">./lk/tests/executables_tests/some_sub_dir/script04.sh</text><text x="57.114" y="1.67" class="g">-</text><text x="59.118" y="1.67" class="g">script04_funct</text><path class="m" d="M73.146 0h1v2.171h-1z"/><text x="73.146" y="1.67" class="g">i</text><text x="74.148" y="1.67" class="g">o</text><path class="m" d="M75.15 0h1v2.171h-1z"/><text x="75.15" y="1.67" class="g">n</text><text x="76.152" y="1.67" class="g">01</text></symbol><symbol id="21"><path class="k" d="M0 0h1v2.171H0z"/><text y="1.67" class="g"></text><text x="3.006" y="1.67" class="g">./lk/tests/executables_tests/some_sub_dir/script01.sh</text><text x="57.114" y="1.67" class="g">-</text><text x="59.118" y="1.67" class="g">script01_funct</text><path class="m" d="M73.146 0h1v2.171h-1z"/><text x="73.146" y="1.67" class="g">i</text><text x="74.148" y="1.67" class="g">o</text><path class="m" d="M75.15 0h1v2.171h-1z"/><text x="75.15" y="1.67" class="g">n</text><text x="76.152" y="1.67" class="g">02</text></symbol><symbol id="22"><path class="k" d="M0 0h1v2.171H0z"/><text y="1.67" class="g"></text><text x="3.006" y="1.67" class="g">./lk/tests/executables_tests/some_sub_dir/script01.sh</text><text x="57.114" y="1.67" class="g">-</text><text x="59.118" y="1.67" class="g">script01_funct</text><path class="m" d="M73.146 0h1v2.171h-1z"/><text x="73.146" y="1.67" class="g">i</text><text x="74.148" y="1.67" class="g">o</text><path class="m" d="M75.15 0h1v2.171h-1z"/><text x="75.15" y="1.67" class="g">n</text><text x="76.152" y="1.67" class="g">01</text></symbol><symbol id="23"><path class="k" d="M0 0h1v2.171H0z"/><text y="1.67" class="g"></text><text x="3.006" y="1.67" class="g">./lk/tests/script.sh</text><text x="24.048" y="1.67" class="g">-</text><text x="26.052" y="1.67" class="g">print</text><path class="m" d="M31.062 0h2v2.171h-2z"/><text x="31.062" y="1.67" class="g">in</text><text x="33.066" y="1.67" class="g">g_function</text></symbol><symbol id="24"><path class="k" d="M0 0h1v2.171H0z"/><text y="1.67" class="n">&gt;</text><path class="k" d="M1.002 0h2v2.171h-2z"/><text x="1.002" y="1.67" class="g"></text><path class="k" d="M3.006 0h8v2.171h-8z"/><text x="3.006" y="1.67" class="o">./dev -</text><path class="m" d="M11.022 0h2v2.171h-2z"/><text x="11.022" y="1.67" class="g">in</text><path class="k" d="M13.026 0h5v2.171h-5z"/><text x="13.026" y="1.67" class="o">stall</text></symbol><symbol id="25"><text y="1.67" class="l">$</text><text x="2.004" y="1.67" class="g">in</text></symbol><symbol id="26"><path class="k" d="M0 0h1v2.171H0z"/><text y="1.67" class="g"></text><text x="3.006" y="1.67" class="g">./lk/tests/depends_on_f</text><path class="m" d="M26.052 0h1v2.171h-1z"/><text x="26.052" y="1.67" class="g">i</text><text x="27.054" y="1.67" class="g">le/depe</text><path class="m" d="M34.068 0h1v2.171h-1z"/><text x="34.068" y="1.67" class="g">n</text><text x="35.07" y="1.67" class="g">d</text><path class="m" d="M36.072 0h1v2.171h-1z"/><text x="36.072" y="1.67" class="g">s</text><text x="37.074" y="1.67" class="g">_on_file.sh</text><text x="49.098" y="1.67" class="g">-</text><text x="51.102" y="1.67" class="g">depends_on_file</text></symbol><symbol id="27"><path class="k" d="M0 0h1v2.171H0z"/><text y="1.67" class="g"></text><text x="3.006" y="1.67" class="g">./lk/tests/test.sh</text><text x="22.044" y="1.67" class="g">-</text><text x="24.048" y="1.67" class="g">yet_more_funct</text><path class="m" d="M38.076 0h1v2.171h-1z"/><text x="38.076" y="1.67" class="g">i</text><text x="39.078" y="1.67" class="g">o</text><path class="m" d="M40.08 0h2v2.171h-2z"/><text x="40.08" y="1.67" class="g">ns</text></symbol><symbol id="28"><path class="k" d="M0 0h1v2.171H0z"/><text y="1.67" class="g"></text><text x="3.006" y="1.67" class="g">./lk/tests/script.sh</text><text x="24.048" y="1.67" class="g">-</text><text x="26.052" y="1.67" class="g">yet_more_funct</text><path class="m" d="M40.08 0h1v2.171h-1z"/><text x="40.08" y="1.67" class="g">i</text><text x="41.082" y="1.67" class="g">o</text><path class="m" d="M42.084 0h2v2.171h-2z"/><text x="42.084" y="1.67" class="g">ns</text></symbol><symbol id="29"><path class="k" d="M0 0h1v2.171H0z"/><text y="1.67" class="n">&gt;</text><path class="k" d="M1.002 0h2v2.171h-2z"/><text x="1.002" y="1.67" class="g"></text><path class="k" d="M3.006 0h8v2.171h-8z"/><text x="3.006" y="1.67" class="o">./dev -</text><path class="m" d="M11.022 0h3v2.171h-3z"/><text x="11.022" y="1.67" class="g">ins</text><path class="k" d="M14.028 0h4v2.171h-4z"/><text x="14.028" y="1.67" class="o">tall</text></symbol><symbol id="30"><path class="m" d="M5.01 0h23v2.171h-23z"/><text x="5.01" y="1.67" class="g">lk: ./dev -&gt; install ()</text></symbol><symbol id="31"><text x="4.008" y="1.67" class="j">Finished</text><text x="13.026" y="1.67" class="g">release</text><text x="21.042" y="1.67" class="g">[optimized]</text><text x="33.066" y="1.67" class="g">target(s)</text><text x="43.086" y="1.67" class="g">in</text><text x="46.092" y="1.67" class="g">0.13s</text></symbol><symbol id="32"><text y="1.67" class="f">lk</text><text x="3.006" y="1.67" class="g">on</text><text x="6.012" y="1.67" class="h"></text><text x="8.016" y="1.67" class="h">main</text><text x="13.026" y="1.67" class="i">[$!]</text><text x="18.036" y="1.67" class="g">via</text><text x="22.044" y="1.67" class="i">🦀</text><text x="25.05" y="1.67" class="i">v1.56.1</text><text x="33.066" y="1.67" class="g">took</text><text x="38.076" y="1.67" style="white-space:pre" fill="#dbab79" font-weight="700">2s</text></symbol><symbol id="33"><text y="1.67" class="j">❯</text><text x="2.004" y="1.67" class="g">exit</text></symbol><symbol id="a"><path fill="transparent" d="M0 0h126v18H0z"/></symbol><symbol id="b"><path fill="#6f7683" d="M0 0h1.102v2.171H0z"/></symbol></defs><path class="a" d="M0 0h126v39.078H0z"/><g style="animation-duration:7.621459s;animation-iteration-count:infinite;animation-name:s;animation-timing-function:steps(1,end)"><svg width="5292"><svg><use xlink:href="#a"/><use xlink:href="#b" x="-.004"/></svg><svg x="126"><use xlink:href="#a"/><use xlink:href="#b" x="-.004"/></svg><svg x="252"><use xlink:href="#a"/><use xlink:href="#b" x="-.004"/></svg><svg x="378"><use xlink:href="#a"/><use xlink:href="#b" x="1.996" y="4.317"/><use xlink:href="#1" y="2.171"/><use xlink:href="#2" y="4.342"/></svg><svg x="504"><use xlink:href="#a"/><use xlink:href="#b" x="1.996" y="4.317"/><use xlink:href="#1" y="2.171"/><use xlink:href="#2" y="4.342"/></svg><svg x="630"><use xlink:href="#a"/><use xlink:href="#b" x="2.996" y="4.317"/><use xlink:href="#1" y="2.171"/><text y="6.012" class="j">❯</text><text x="2.004" y="6.012" class="g">l</text></svg><svg x="756"><use xlink:href="#a"/><use xlink:href="#b" x="3.996" y="4.317"/><use xlink:href="#1" y="2.171"/><use xlink:href="#3" y="4.342"/></svg><svg x="882"><use xlink:href="#a"/><use xlink:href="#b" x="4.996" y="4.317"/><use xlink:href="#1" y="2.171"/><use xlink:href="#3" y="4.342"/></svg><svg x="1008"><use xlink:href="#a"/><use xlink:href="#b" x="5.996" y="4.317"/><use xlink:href="#1" y="2.171"/><text y="6.012" class="j">❯</text><text x="2.004" y="6.012" class="g">lk</text><text x="5.01" y="6.012" class="g">-</text></svg><svg x="1134"><use xlink:href="#a"/><use xlink:href="#b" x="6.996" y="4.317"/><use xlink:href="#1" y="2.171"/><text y="6.012" class="j">❯</text><text x="2.004" y="6.012" class="g">lk</text><text x="5.01" y="6.012" class="g">--</text></svg><svg x="1260"><use xlink:href="#a"/><use xlink:href="#b" x="7.996" y="4.317"/><use xlink:href="#1" y="2.171"/><text y="6.012" class="j">❯</text><text x="2.004" y="6.012" class="g">lk</text><text x="5.01" y="6.012" class="g">--f</text></svg><svg x="1386"><use xlink:href="#a"/><use xlink:href="#b" x="8.996" y="4.317"/><use xlink:href="#1" y="2.171"/><text y="6.012" class="j">❯</text><text x="2.004" y="6.012" class="g">lk</text><text x="5.01" y="6.012" class="g">--fu</text></svg><svg x="1512"><use xlink:href="#a"/><use xlink:href="#b" x="9.996" y="4.317"/><use xlink:href="#1" y="2.171"/><text y="6.012" class="j">❯</text><text x="2.004" y="6.012" class="g">lk</text><text x="5.01" y="6.012" class="g">--fuz</text></svg><svg x="1638"><use xlink:href="#a"/><use xlink:href="#b" x="10.996" y="4.317"/><use xlink:href="#1" y="2.171"/><text y="6.012" class="j">❯</text><text x="2.004" y="6.012" class="g">lk</text><text x="5.01" y="6.012" class="g">--fuzz</text></svg><svg x="1764"><use xlink:href="#a"/><use xlink:href="#b" x="11.996" y="4.317"/><use xlink:href="#1" y="2.171"/><use xlink:href="#4" y="4.342"/></svg><svg x="1890"><use xlink:href="#a"/><use xlink:href="#b" x="11.996" y="4.317"/><use xlink:href="#1" y="2.171"/><use xlink:href="#4" y="4.342"/></svg><svg x="2016"><use xlink:href="#a"/><use xlink:href="#b" x="-.004" y="6.488"/><use xlink:href="#1" y="2.171"/><use xlink:href="#4" y="4.342"/></svg><svg x="2142"><use xlink:href="#a"/><use xlink:href="#b" x="-.004" y="6.488"/><use xlink:href="#1" y="2.171"/><use xlink:href="#4" y="4.342"/></svg><svg x="2268"><use xlink:href="#a"/><use xlink:href="#b" x="1.996" y="6.488"/><use xlink:href="#1" y="2.171"/><use xlink:href="#4" y="4.342"/><use xlink:href="#5" y="6.513"/></svg><svg x="2394"><use xlink:href="#a"/><use xlink:href="#b" x="1.996" y="6.488"/><use xlink:href="#1" y="2.171"/><use xlink:href="#4" y="4.342"/><use xlink:href="#5" y="6.513"/></svg><svg x="2520"><use xlink:href="#a"/><use xlink:href="#b" x="1.996" y="6.488"/><use xlink:href="#1" y="2.171"/><use xlink:href="#4" y="4.342"/><use xlink:href="#5" y="6.513"/></svg><svg x="2646"><use xlink:href="#a"/><use xlink:href="#b" x="64.996" y="21.685"/><use xlink:href="#1" y="2.171"/><use xlink:href="#4" y="4.342"/><use xlink:href="#5" y="6.513"/><use xlink:href="#6" y="19.539"/><use xlink:href="#7" y="21.71"/></svg><svg x="2772"><use xlink:href="#a"/><use xlink:href="#b" x="1.996" y="36.882"/><use xlink:href="#1" y="2.171"/><use xlink:href="#4" y="4.342"/><use xlink:href="#5" y="6.513"/><use xlink:href="#6" y="19.539"/><use xlink:href="#7" y="21.71"/><path class="k" d="M0 23.881h1v2.171H0z"/><text y="25.551" class="g"></text><text x="3.006" y="25.551" class="g">./lk/tests/executables_tests/script04.sh</text><text x="44.088" y="25.551" class="g">-</text><text x="46.092" y="25.551" class="g">script04_function01</text><path class="k" d="M0 26.052h1v2.171H0z"/><text y="27.722" class="g"></text><text x="3.006" y="27.722" class="g">./lk/tests/script.sh</text><text x="24.048" y="27.722" class="g">-</text><text x="26.052" y="27.722" class="g">printing_function</text><path class="k" d="M0 28.223h1v2.171H0z"/><text y="29.893" class="g"></text><text x="3.006" y="29.893" class="g">./lk/tests/script.sh</text><text x="24.048" y="29.893" class="g">-</text><text x="26.052" y="29.893" class="g">yet_more_functions</text><path class="k" d="M0 30.394h1v2.171H0z"/><text y="32.064" class="g"></text><text x="3.006" y="32.064" class="g">./lk/tests/script.sh</text><text x="24.048" y="32.064" class="g">-</text><text x="26.052" y="32.064" class="g">another_function</text><path class="k" d="M0 32.565h1v2.171H0z"/><text y="34.235" class="g"></text><text x="3.006" y="34.235" class="g">./lk/tests/script.sh</text><text x="24.048" y="34.235" class="g">-</text><text x="26.052" y="34.235" class="g">some_function</text><path class="k" d="M0 34.736h1v2.171H0z"/><text y="36.406" class="n">&gt;</text><path class="k" d="M1.002 34.736h2v2.171h-2z"/><text x="1.002" y="36.406" class="g"></text><path class="k" d="M3.006 34.736h63v2.171h-63z"/><text x="3.006" y="36.406" class="o">./lk/tests/depends_on_file/depends_on_file.sh - depends_on_file</text><use xlink:href="#8" y="36.907"/></svg><svg x="2898"><use xlink:href="#a"/><use xlink:href="#b" x="14.996" y="34.711"/><use xlink:href="#1" y="2.171"/><use xlink:href="#4" y="4.342"/><use xlink:href="#5" y="6.513"/><use xlink:href="#9" y="19.539"/><use xlink:href="#10" y="21.71"/><use xlink:href="#11" y="23.881"/><use xlink:href="#12" y="26.052"/><use xlink:href="#13" y="28.223"/><use xlink:href="#14" y="30.394"/><use xlink:href="#15" y="32.565"/><path class="k" d="M0 34.736h1v2.171H0z"/><text y="36.406" class="n">&gt;</text><path class="k" d="M1.002 34.736h2v2.171h-2z"/><text x="1.002" y="36.406" class="g"></text><path class="k" d="M3.006 34.736h8v2.171h-8z"/><text x="3.006" y="36.406" class="o">./dev -</text><path class="m" d="M11.022 34.736h1v2.171h-1z"/><text x="11.022" y="36.406" class="g">i</text><path class="k" d="M12.024 34.736h3v2.171h-3z"/><text x="12.024" y="36.406" class="o">nst</text><use xlink:href="#8" y="36.907"/></svg><svg x="3024"><use xlink:href="#a"/><use xlink:href="#b" x="2.996" y="36.882"/><use xlink:href="#1" y="2.171"/><use xlink:href="#4" y="4.342"/><use xlink:href="#5" y="6.513"/><use xlink:href="#9" y="19.539"/><use xlink:href="#10" y="21.71"/><use xlink:href="#11" y="23.881"/><use xlink:href="#12" y="26.052"/><use xlink:href="#13" y="28.223"/><use xlink:href="#14" y="30.394"/><use xlink:href="#15" y="32.565"/><path class="k" d="M0 34.736h1v2.171H0z"/><text y="36.406" class="n">&gt;</text><path class="k" d="M1.002 34.736h2v2.171h-2z"/><text x="1.002" y="36.406" class="g"></text><path class="k" d="M3.006 34.736h8v2.171h-8z"/><text x="3.006" y="36.406" class="o">./dev -</text><path class="m" d="M11.022 34.736h1v2.171h-1z"/><text x="11.022" y="36.406" class="g">i</text><path class="k" d="M12.024 34.736h6v2.171h-6z"/><text x="12.024" y="36.406" class="o">nstall</text><use xlink:href="#16" y="36.907"/></svg><svg x="3150"><use xlink:href="#a"/><use xlink:href="#b" x="2.996" y="34.711"/><use xlink:href="#1" y="2.171"/><use xlink:href="#4" y="4.342"/><use xlink:href="#5" y="6.513"/><use xlink:href="#17" y="19.539"/><use xlink:href="#18" y="21.71"/><use xlink:href="#19" y="23.881"/><use xlink:href="#20" y="26.052"/><use xlink:href="#21" y="28.223"/><use xlink:href="#22" y="30.394"/><use xlink:href="#23" y="32.565"/><path class="k" d="M0 34.736h1v2.171H0z"/><text y="36.406" class="n">&gt;</text><path class="k" d="M1.002 34.736h2v2.171h-2z"/><text x="1.002" y="36.406" class="g"></text><use xlink:href="#16" y="36.907"/></svg><svg x="3276"><use xlink:href="#a"/><use xlink:href="#b" x="3.996" y="36.882"/><use xlink:href="#1" y="2.171"/><use xlink:href="#4" y="4.342"/><use xlink:href="#5" y="6.513"/><use xlink:href="#17" y="19.539"/><use xlink:href="#18" y="21.71"/><use xlink:href="#19" y="23.881"/><use xlink:href="#20" y="26.052"/><use xlink:href="#21" y="28.223"/><use xlink:href="#22" y="30.394"/><use xlink:href="#23" y="32.565"/><use xlink:href="#24" y="34.736"/><use xlink:href="#25" y="36.907"/></svg><svg x="3402"><use xlink:href="#a"/><use xlink:href="#b" x="65.996" y="28.198"/><use xlink:href="#1" y="2.171"/><use xlink:href="#4" y="4.342"/><use xlink:href="#5" y="6.513"/><use xlink:href="#26" y="28.223"/><use xlink:href="#22" y="30.394"/><use xlink:href="#23" y="32.565"/><use xlink:href="#24" y="34.736"/><use xlink:href="#25" y="36.907"/></svg><svg x="3528"><use xlink:href="#a"/><use xlink:href="#b" x="4.996" y="36.882"/><use xlink:href="#1" y="2.171"/><use xlink:href="#4" y="4.342"/><use xlink:href="#5" y="6.513"/><use xlink:href="#26" y="28.223"/><use xlink:href="#27" y="30.394"/><use xlink:href="#28" y="32.565"/><use xlink:href="#29" y="34.736"/><text y="38.577" class="l">$</text><text x="2.004" y="38.577" class="g">ins</text></svg><svg x="3654"><use xlink:href="#a"/><use xlink:href="#b" x="-.004" y="36.882"/><use xlink:href="#1"/><use xlink:href="#4" y="2.171"/><use xlink:href="#5" y="4.342"/><use xlink:href="#26" y="26.052"/><use xlink:href="#27" y="28.223"/><use xlink:href="#28" y="30.394"/><use xlink:href="#29" y="32.565"/><use xlink:href="#30" y="34.736"/></svg><svg x="3780"><use xlink:href="#a"/><use xlink:href="#b" x="-.004" y="36.882"/><use xlink:href="#4"/><use xlink:href="#5" y="2.171"/><use xlink:href="#26" y="23.881"/><use xlink:href="#27" y="26.052"/><use xlink:href="#28" y="28.223"/><use xlink:href="#29" y="30.394"/><use xlink:href="#30" y="32.565"/><use xlink:href="#31" y="34.736"/></svg><svg x="3906"><use xlink:href="#a"/><use xlink:href="#b" x="-.004" y="36.882"/><use xlink:href="#4"/><use xlink:href="#5" y="2.171"/><use xlink:href="#26" y="23.881"/><use xlink:href="#27" y="26.052"/><use xlink:href="#28" y="28.223"/><use xlink:href="#29" y="30.394"/><use xlink:href="#30" y="32.565"/><use xlink:href="#31" y="34.736"/></svg><svg x="4032"><use xlink:href="#a"/><use xlink:href="#b" x="-.004" y="36.882"/><use xlink:href="#4"/><use xlink:href="#5" y="2.171"/><use xlink:href="#26" y="23.881"/><use xlink:href="#27" y="26.052"/><use xlink:href="#28" y="28.223"/><use xlink:href="#29" y="30.394"/><use xlink:href="#30" y="32.565"/><use xlink:href="#31" y="34.736"/></svg><svg x="4158"><use xlink:href="#a"/><use xlink:href="#b" x="1.996" y="36.882"/><use xlink:href="#26" y="19.539"/><use xlink:href="#27" y="21.71"/><use xlink:href="#28" y="23.881"/><use xlink:href="#29" y="26.052"/><use xlink:href="#30" y="28.223"/><use xlink:href="#31" y="30.394"/><use xlink:href="#32" y="34.736"/><use xlink:href="#2" y="36.907"/></svg><svg x="4284"><use xlink:href="#a"/><use xlink:href="#b" x="1.996" y="36.882"/><use xlink:href="#26" y="19.539"/><use xlink:href="#27" y="21.71"/><use xlink:href="#28" y="23.881"/><use xlink:href="#29" y="26.052"/><use xlink:href="#30" y="28.223"/><use xlink:href="#31" y="30.394"/><use xlink:href="#32" y="34.736"/><use xlink:href="#2" y="36.907"/></svg><svg x="4410"><use xlink:href="#a"/><use xlink:href="#b" x="2.996" y="36.882"/><use xlink:href="#26" y="19.539"/><use xlink:href="#27" y="21.71"/><use xlink:href="#28" y="23.881"/><use xlink:href="#29" y="26.052"/><use xlink:href="#30" y="28.223"/><use xlink:href="#31" y="30.394"/><use xlink:href="#32" y="34.736"/><text y="38.577" class="j">❯</text><text x="2.004" y="38.577" class="g">e</text></svg><svg x="4536"><use xlink:href="#a"/><use xlink:href="#b" x="3.996" y="36.882"/><use xlink:href="#26" y="19.539"/><use xlink:href="#27" y="21.71"/><use xlink:href="#28" y="23.881"/><use xlink:href="#29" y="26.052"/><use xlink:href="#30" y="28.223"/><use xlink:href="#31" y="30.394"/><use xlink:href="#32" y="34.736"/><text y="38.577" class="j">❯</text><text x="2.004" y="38.577" class="g">ex</text></svg><svg x="4662"><use xlink:href="#a"/><use xlink:href="#b" x="4.996" y="36.882"/><use xlink:href="#26" y="19.539"/><use xlink:href="#27" y="21.71"/><use xlink:href="#28" y="23.881"/><use xlink:href="#29" y="26.052"/><use xlink:href="#30" y="28.223"/><use xlink:href="#31" y="30.394"/><use xlink:href="#32" y="34.736"/><text y="38.577" class="j">❯</text><text x="2.004" y="38.577" class="g">exi</text></svg><svg x="4788"><use xlink:href="#a"/><use xlink:href="#b" x="5.996" y="36.882"/><use xlink:href="#26" y="19.539"/><use xlink:href="#27" y="21.71"/><use xlink:href="#28" y="23.881"/><use xlink:href="#29" y="26.052"/><use xlink:href="#30" y="28.223"/><use xlink:href="#31" y="30.394"/><use xlink:href="#32" y="34.736"/><use xlink:href="#33" y="36.907"/></svg><svg x="4914"><use xlink:href="#a"/><use xlink:href="#b" x="5.996" y="36.882"/><use xlink:href="#26" y="19.539"/><use xlink:href="#27" y="21.71"/><use xlink:href="#28" y="23.881"/><use xlink:href="#29" y="26.052"/><use xlink:href="#30" y="28.223"/><use xlink:href="#31" y="30.394"/><use xlink:href="#32" y="34.736"/><use xlink:href="#33" y="36.907"/></svg><svg x="5040"><use xlink:href="#a"/><use xlink:href="#b" x="-.004" y="36.882"/><use xlink:href="#26" y="17.368"/><use xlink:href="#27" y="19.539"/><use xlink:href="#28" y="21.71"/><use xlink:href="#29" y="23.881"/><use xlink:href="#30" y="26.052"/><use xlink:href="#31" y="28.223"/><use xlink:href="#32" y="32.565"/><use xlink:href="#33" y="34.736"/></svg><svg x="5166"><use xlink:href="#a"/><use xlink:href="#b" x="-.004" y="36.882"/><use xlink:href="#26" y="17.368"/><use xlink:href="#27" y="19.539"/><use xlink:href="#28" y="21.71"/><use xlink:href="#29" y="23.881"/><use xlink:href="#30" y="26.052"/><use xlink:href="#31" y="28.223"/><use xlink:href="#32" y="32.565"/><use xlink:href="#33" y="34.736"/></svg></svg></g></g></svg></svg>